HIERARCHY
ROOT Pelvis
{

	OFFSET     0.000000     0.000000     0.000000
	CHANNELS 6 Xposition Yposition Zposition Zrotation Xrotation Yrotation
	JOINT LowerBack
	{

		OFFSET    -0.000691     0.176488     0.017766
		CHANNELS 3 Zrotation Xrotation Yrotation
		JOINT Chest
		{

			OFFSET    -0.002754     0.128976    -0.000512
			CHANNELS 3 Zrotation Xrotation Yrotation
			JOINT back3
			{

				OFFSET     0.002471     0.201657    -0.000850
				CHANNELS 3 Zrotation Xrotation Yrotation
				JOINT Neck
				{

					OFFSET     0.001840     0.072570     0.000595
					CHANNELS 3 Zrotation Xrotation Yrotation
					JOINT Head
					{

						OFFSET     0.003323     0.152818     0.030907
						CHANNELS 3 Zrotation Xrotation Yrotation
						JOINT joint7
						{

							OFFSET     0.000612     0.183936     0.002625
							CHANNELS 3 Zrotation Xrotation Yrotation
							End Site
							{
								OFFSET     0.000000     0.000000     0.018310
							}
						}

					}

				}

				JOINT LeftCollar
				{

					OFFSET     0.053456     0.093486     0.002205
					CHANNELS 3 Zrotation Xrotation Yrotation
					JOINT LeftShoulder
					{

						OFFSET     0.112884    -0.020868     0.002319
						CHANNELS 3 Zrotation Xrotation Yrotation
						JOINT LeftElbow
						{

							OFFSET     0.297302     0.003523    -0.020737
							CHANNELS 3 Zrotation Xrotation Yrotation
							JOINT LeftWrist
							{

								OFFSET     0.290007     0.004431    -0.007313
								CHANNELS 3 Zrotation Xrotation Yrotation
								JOINT lf_hand
								{

									OFFSET     0.117001    -0.002589    -0.008771
									CHANNELS 3 Zrotation Xrotation Yrotation
									End Site
									{
										OFFSET     0.000000    -0.009821     0.000000
									}
								}

							}

						}

					}

				}

				JOINT RightCollar
				{

					OFFSET    -0.048666     0.096092     0.000301
					CHANNELS 3 Zrotation Xrotation Yrotation
					JOINT RightShoulder
					{

						OFFSET    -0.115072    -0.022479    -0.001894
						CHANNELS 3 Zrotation Xrotation Yrotation
						JOINT RightElbow
						{

							OFFSET    -0.297072     0.004954    -0.020752
							CHANNELS 3 Zrotation Xrotation Yrotation
							JOINT RightWrist
							{

								OFFSET    -0.292425    -0.005826    -0.023258
								CHANNELS 3 Zrotation Xrotation Yrotation
								JOINT rt_hand
								{

									OFFSET    -0.118185    -0.001061    -0.015047
									CHANNELS 3 Zrotation Xrotation Yrotation
									End Site
									{
										OFFSET     0.000000    -0.009987     0.000000
									}
								}

							}

						}

					}

				}

			}

			JOINT joint13
			{

				OFFSET     0.125914     0.117470     0.000000
				CHANNELS 3 Zrotation Xrotation Yrotation
				End Site
				{
					OFFSET     0.000000     0.000000    -0.017144
				}
			}

			JOINT joint14
			{

				OFFSET    -0.120063     0.114907     0.000000
				CHANNELS 3 Zrotation Xrotation Yrotation
				End Site
				{
					OFFSET     0.000000     0.000000    -0.016479
				}
			}

		}

	}

	JOINT RightHip
	{

		OFFSET    -0.109283    -0.057257     0.000987
		CHANNELS 3 Zrotation Xrotation Yrotation
		JOINT RightKnee
		{

			OFFSET     0.002149    -0.429339     0.038617
			CHANNELS 3 Zrotation Xrotation Yrotation
			JOINT RightAnkle
			{

				OFFSET    -0.001765    -0.522522    -0.077092
				CHANNELS 3 Zrotation Xrotation Yrotation
				JOINT r_ball
				{

					OFFSET    -0.000000    -0.037315     0.142913
					CHANNELS 3 Zrotation Xrotation Yrotation
					End Site
					{
						OFFSET     0.000000     0.000000     0.014648
					}
				}

			}

		}

	}

	JOINT LeftHip
	{

		OFFSET     0.098180    -0.056757     0.003895
		CHANNELS 3 Zrotation Xrotation Yrotation
		JOINT LeftKnee
		{

			OFFSET     0.007057    -0.430531     0.035812
			CHANNELS 3 Zrotation Xrotation Yrotation
			JOINT LeftAnkle
			{

				OFFSET    -0.005475    -0.521755    -0.078136
				CHANNELS 3 Zrotation Xrotation Yrotation
				JOINT lf_ball
				{

					OFFSET     0.000065    -0.036737     0.143337
					CHANNELS 3 Zrotation Xrotation Yrotation
					End Site
					{
						OFFSET     0.000000     0.000000     0.014648
					}
				}

			}

		}

	}

}

MOTION
Frames: 8
Frame Time: 0.033333
   -0.366486     0.912848     2.042708     0.287362     7.292508   -10.885021    -3.298664   -11.762050    -1.296656    -2.046503     2.817049    -1.013463     0.000000     0.000000     0.000000     0.000000     0.000000     0.000000     2.143071   -18.530769    -7.625103     0.000000     0.000000     0.000000     8.097531    -0.247567    -1.812924   -53.163624   -27.809608    -3.638359     3.184778     2.212104  -110.440514    37.422699   -14.909963   -43.539597     0.000000     0.000000     0.000000    -7.069912    -0.639307     5.121072    75.788445     7.671104     7.036569    -2.429662     2.360507    91.891449     0.338582   -22.822279   -17.113552     0.000000     0.000000     0.000000     0.000000     0.000000     0.000000     0.000000     0.000000     0.000000    -1.085576   -24.707558   -15.422321     0.000000     5.893203     0.000000    -4.474955    -7.308217    -6.181708     0.000000     0.000000     0.000000     0.549976     2.017792   -17.428600     0.000000    13.583573     0.000000    -1.229939   -17.707047    -0.850113     0.000000     0.000000     0.000000 
   -0.380916     0.913963     2.056586     0.057266     7.266846    -9.961637    -3.496943   -11.922428    -1.287041    -2.182022     2.781492    -0.919830     0.000000     0.000000     0.000000     0.000000     0.000000     0.000000     2.145820   -18.954008    -8.218825     0.000000     0.000000     0.000000     8.084017    -0.232979    -1.708803   -52.733059   -28.487820    -3.014710     3.180882     2.205439  -110.329559    37.481762   -14.949073   -43.389923     0.000000     0.000000     0.000000    -6.951372    -0.625744     5.101239    75.755585     6.826231     6.310119    -2.421423     2.359045    91.732872     0.078883   -22.824034   -17.469891     0.000000     0.000000     0.000000     0.000000     0.000000     0.000000     0.000000     0.000000     0.000000    -0.550964   -23.943602   -16.116106     0.000000     6.741138     0.000000    -4.817119    -7.446368    -6.344389     0.000000     0.000000     0.000000     1.537400     2.568782   -18.739374     0.000000    14.125943     0.000000    -2.987985   -16.464012    -0.715229     0.000000     0.000000     0.000000 
   -0.395453     0.915664     2.070441    -0.161124     7.245049    -9.096841    -3.687449   -12.083169    -1.270130    -2.310786     2.745697    -0.819502     0.000000     0.000000     0.000000     0.000000     0.000000     0.000000     2.564091   -19.268816    -8.566756     0.000000     0.000000     0.000000     8.091407    -0.218706    -1.604612   -52.322121   -29.176674    -2.412053     3.174520     2.214322  -110.213249    37.532543   -14.980881   -43.230984     0.000000     0.000000     0.000000    -6.881469    -0.612646     5.052774    75.733528     6.067103     5.634329    -2.409756     2.360525    91.420670    -0.270893   -22.814043   -17.812889     0.000000     0.000000     0.000000     0.000000     0.000000     0.000000     0.000000     0.000000     0.000000     0.105403   -22.947680   -16.815281     0.000000     6.993809     0.000000    -5.136570    -7.202437    -6.396275     0.000000     0.000000     0.000000     2.540534     3.014131   -19.927099     0.000000    14.620593     0.000000    -4.648223   -14.784594    -0.631634     0.000000     0.000000     0.000000 
   -0.409967     0.917735     2.084190    -0.354511     7.219285    -8.290692    -3.876436   -12.224335    -1.238887    -2.439015     2.709802    -0.733206     0.000000     0.000000     0.000000     0.000000     0.000000     0.000000     3.294254   -19.371767    -8.627611     0.000000     0.000000     0.000000     8.099266    -0.204437    -1.500513   -51.930885   -29.884371    -1.817671     3.176899     2.211700  -110.109993    37.571846   -15.014353   -43.069321     0.000000     0.000000     0.000000    -6.986568    -0.621715     5.009956    75.873993     5.343458     4.770448    -2.402686     2.367872    91.074234    -0.840252   -22.781361   -18.295992     0.000000     0.000000     0.000000     0.000000     0.000000     0.000000     0.000000     0.000000     0.000000     0.842574   -21.762566   -17.490685     0.000000     6.811391     0.000000    -5.452477    -6.737353    -6.372578     0.000000     0.000000     0.000000     3.510560     3.437649   -20.924877     0.000000    15.014531     0.000000    -6.040528   -12.773746    -0.606275     0.000000     0.000000     0.000000 
   -0.424322     0.919962     2.097748    -0.514957     7.202964    -7.542589    -4.066744   -12.364359    -1.222227    -2.567477     2.680395    -0.632840     0.000000     0.000000     0.000000     0.000000     0.000000     0.000000     3.719725   -19.370737    -8.470594     0.000000     0.000000     0.000000     8.120645    -0.183325    -1.396777   -51.552269   -30.608261    -1.229448     3.171160     2.219578  -110.028656    37.605068   -15.010188   -42.898777     0.000000     0.000000     0.000000    -7.197693    -0.618693     4.925578    76.031799     4.633304     3.755996    -2.380425     2.361058    90.707420    -1.669741   -22.764065   -18.906378     0.000000     0.000000     0.000000     0.000000     0.000000     0.000000     0.000000     0.000000     0.000000     1.627125   -20.464140   -18.114290     0.000000     6.320852     0.000000    -5.770453    -6.194231    -6.348757     0.000000     0.000000     0.000000     4.440457     3.834924   -21.655720     0.000000    15.283604     0.000000    -6.992329   -10.531807    -0.652296     0.000000     0.000000     0.000000 
   -0.438387     0.922133     2.111032    -0.657127     7.184312    -6.859168    -4.239697   -12.483074    -1.182110    -2.689101     2.636590    -0.526036     0.000000     0.000000     0.000000     0.000000     0.000000     0.000000     3.747436   -19.375257    -8.258202     0.000000     0.000000     0.000000     8.154777    -0.176751    -1.298845   -51.179325   -31.360289    -0.645115     3.173274     2.215545  -109.955185    37.626209   -15.019732   -42.716175     0.000000     0.000000     0.000000    -7.262225    -0.590991     4.667266    75.814117     3.972648     2.948927    -2.374686     2.356125    90.449738    -2.576588   -22.867407   -19.501009     0.000000     0.000000     0.000000     0.000000     0.000000     0.000000     0.000000     0.000000     0.000000     2.463686   -19.128277   -18.624952     0.000000     5.647952     0.000000    -6.094067    -5.719740    -6.354259     0.000000     0.000000     0.000000     5.463752     4.574319   -22.028618     0.000000    14.753329     0.000000    -7.389845    -7.889563    -0.819490     0.000000     0.000000     0.000000 
   -0.452029     0.924033     2.123960    -0.765822     7.177979    -6.249032    -4.405251   -12.583706    -1.133907    -2.810466     2.600052    -0.433181     0.000000     0.000000     0.000000     0.000000     0.000000     0.000000     3.702889   -19.394884    -8.095256     0.000000     0.000000     0.000000     8.205427    -0.162865    -1.194796   -50.817410   -32.156742    -0.066178     3.166999     2.213490  -109.898201    37.643238   -15.016759   -42.546776     0.000000     0.000000     0.000000    -7.042189    -0.516061     4.167634    75.019608     3.442733     2.519697    -2.372659     2.358589    90.340881    -3.720392   -23.174129   -20.136517     0.000000     0.000000     0.000000     0.000000     0.000000     0.000000     0.000000     0.000000     0.000000     3.314733   -17.813314   -18.998985     0.000000     4.947805     0.000000    -6.435646    -5.479652    -6.435646     0.000000     0.000000     0.000000     6.485458     5.002602   -21.531971     0.000000    14.528599     0.000000    -8.012845    -4.796429    -1.543573     0.000000     0.000000     0.000000 
   -0.465115     0.925449     2.136446    -0.842701     7.162431    -5.703919    -4.555794   -12.669255    -1.083617    -2.924917     2.562784    -0.326540     0.000000     0.000000     0.000000     0.000000     0.000000     0.000000     3.601997   -19.431400    -7.962100     0.000000     0.000000     0.000000     8.429267    -0.163129    -1.166473   -50.769417   -33.122982     0.418044     3.167784     2.212200  -109.942924    37.439400   -14.784698   -42.167740     0.000000     0.000000     0.000000    -6.681947    -0.415585     3.515068    73.905014     2.995981     2.248158    -2.367320     2.364166    90.316154    -5.057633   -23.598360   -20.825264     0.000000     0.000000     0.000000     0.000000     0.000000     0.000000     0.000000     0.000000     0.000000     4.139484   -16.604088   -19.182169     0.000000     4.394710     0.000000    -6.802640    -5.636288    -6.682460     0.000000     0.000000     0.000000     7.502927     4.907135   -19.996454     0.000000    14.894788     0.000000    -9.276684    -0.836363    -2.932049     0.000000     0.000000     0.000000 
